<svg width="50" height="50" viewBox="0 0 50 50" fill="none" xmlns="http://www.w3.org/2000/svg">
<g clip-path="url(#clip0_91_8556)">
<path d="M28.125 7.8125H21.875" stroke="#ED6E77" stroke-width="2" stroke-linecap="round" stroke-linejoin="round"/>
<path d="M21.875 42.1875H28.125" stroke="#ED6E77" stroke-width="2" stroke-linecap="round" stroke-linejoin="round"/>
<path d="M35.9375 7.8125H40.625C41.0394 7.8125 41.4368 7.97712 41.7299 8.27015C42.0229 8.56317 42.1875 8.9606 42.1875 9.375V14.0625" stroke="#ED6E77" stroke-width="2" stroke-linecap="round" stroke-linejoin="round"/>
<path d="M42.1875 28.125V21.875" stroke="#ED6E77" stroke-width="2" stroke-linecap="round" stroke-linejoin="round"/>
<path d="M35.9375 42.1875H40.625C41.0394 42.1875 41.4368 42.0229 41.7299 41.7299C42.0229 41.4368 42.1875 41.0394 42.1875 40.625V35.9375" stroke="#ED6E77" stroke-width="2" stroke-linecap="round" stroke-linejoin="round"/>
<path d="M7.8125 21.875V28.125" stroke="#ED6E77" stroke-width="2" stroke-linecap="round" stroke-linejoin="round"/>
<path d="M14.0625 42.1875H9.375C8.9606 42.1875 8.56317 42.0229 8.27015 41.7299C7.97712 41.4368 7.8125 41.0394 7.8125 40.625V35.9375" stroke="#ED6E77" stroke-width="2" stroke-linecap="round" stroke-linejoin="round"/>
<path d="M14.0625 7.8125H9.375C8.9606 7.8125 8.56317 7.97712 8.27015 8.27015C7.97712 8.56317 7.8125 8.9606 7.8125 9.375V14.0625" stroke="#ED6E77" stroke-width="2" stroke-linecap="round" stroke-linejoin="round"/>
<path d="M34.375 15.625H15.625V34.375H34.375V15.625Z" stroke="#ED6E77" stroke-width="2" stroke-linecap="round" stroke-linejoin="round"/>
</g>
<defs>
<clipPath id="clip0_91_8556">
<rect width="50" height="50" fill="white"/>
</clipPath>
</defs>
</svg>
