<svg width="60" height="60" viewBox="0 0 60 60" fill="none" xmlns="http://www.w3.org/2000/svg">
<g id="9022948_star_duotone_icon 1" clip-path="url(#clip0_91_4543)">
<path id="Vector" d="M31.0331 44.6944L42.8456 52.1944C44.369 53.1553 46.244 51.7256 45.7987 49.9678L42.3768 36.5147C42.2843 36.1418 42.299 35.7504 42.4193 35.3854C42.5395 35.0205 42.7604 34.697 43.0565 34.4522L53.6503 25.6163C55.0331 24.4678 54.3299 22.1475 52.5253 22.0303L38.6971 21.1397C38.3198 21.1178 37.9571 20.9864 37.6532 20.7616C37.3494 20.5368 37.1176 20.2284 36.9862 19.8741L31.8299 6.88971C31.6935 6.51448 31.4448 6.19034 31.1178 5.96129C30.7907 5.73224 30.4011 5.60938 30.0018 5.60938C29.6025 5.60938 29.2129 5.73224 28.8859 5.96129C28.5588 6.19034 28.3102 6.51448 28.1737 6.88971L23.0174 19.8741C22.886 20.2284 22.6542 20.5368 22.3504 20.7616C22.0465 20.9864 21.6838 21.1178 21.3065 21.1397L7.47838 22.0303C5.6737 22.1475 4.97057 24.4678 6.35338 25.6163L16.9471 34.4522C17.2432 34.697 17.4641 35.0205 17.5844 35.3854C17.7046 35.7504 17.7193 36.1418 17.6268 36.5147L14.4628 48.9835C13.9237 51.0928 16.1737 52.8038 17.9784 51.6553L28.9706 44.6944C29.2788 44.4984 29.6365 44.3943 30.0018 44.3943C30.3671 44.3943 30.7248 44.4984 31.0331 44.6944Z" stroke="#ED6E77" stroke-width="2" stroke-linecap="round" stroke-linejoin="round"/>
</g>
<defs>
<clipPath id="clip0_91_4543">
<rect width="60" height="60" fill="white"/>
</clipPath>
</defs>
</svg>
