<svg xmlns="http://www.w3.org/2000/svg" width="60" height="60" fill="none">
  <g clip-path="url(#a)">
    <path stroke="#ED6E77" stroke-linecap="round" stroke-linejoin="round" stroke-width="2" d="m31.033 44.695 11.813 7.5c1.523.961 3.398-.468 2.953-2.226l-3.422-13.453a2.039 2.039 0 0 1 .68-2.063l10.593-8.836c1.383-1.148.68-3.469-1.125-3.586l-13.828-.89a1.946 1.946 0 0 1-1.71-1.266L31.83 6.891a1.945 1.945 0 0 0-3.656 0l-5.157 12.984a1.946 1.946 0 0 1-1.71 1.266l-13.829.89c-1.804.117-2.507 2.438-1.125 3.586l10.594 8.836a2.04 2.04 0 0 1 .68 2.063l-3.164 12.468c-.54 2.11 1.71 3.82 3.515 2.672l10.993-6.96a1.922 1.922 0 0 1 2.062 0Z"/>
  </g>
  <defs>
    <clipPath id="a">
      <path fill="#fff" d="M0 0h60v60H0z"/>
    </clipPath>
  </defs>
</svg>
