<svg width="60" height="60" viewBox="0 0 60 60" fill="none" xmlns="http://www.w3.org/2000/svg">
<g clip-path="url(#clip0_2109_4163)">
<path d="M10.57 45.938C10.63 46.1845 10.7387 46.4164 10.8899 46.6202C11.041 46.8239 11.2314 46.9953 11.4499 47.1242C11.6684 47.2531 11.9105 47.3369 12.1619 47.3707C12.4133 47.4044 12.669 47.3875 12.9137 47.3208C24.0864 44.2272 35.8896 44.2272 47.0622 47.3208C47.3069 47.3875 47.5626 47.4044 47.814 47.3707C48.0654 47.3369 48.3075 47.2531 48.526 47.1242C48.7445 46.9953 48.9349 46.8239 49.086 46.6202C49.2372 46.4164 49.3459 46.1845 49.4059 45.938L55.3825 20.5552C55.4645 20.2154 55.45 19.8595 55.3405 19.5276C55.231 19.1956 55.0309 18.9009 54.7628 18.6767C54.4947 18.4524 54.1692 18.3076 53.8232 18.2585C53.4771 18.2094 53.1242 18.2581 52.8044 18.3989L40.945 23.6723C40.5153 23.8615 40.0307 23.8848 39.5849 23.7376C39.139 23.5905 38.7635 23.2833 38.5309 22.8755L31.6403 10.4536C31.4781 10.1605 31.2405 9.91625 30.9519 9.74615C30.6634 9.57604 30.3346 9.48633 29.9997 9.48633C29.6647 9.48633 29.3359 9.57604 29.0474 9.74615C28.7589 9.91625 28.5212 10.1605 28.359 10.4536L21.4684 22.8755C21.2358 23.2833 20.8603 23.5905 20.4145 23.7376C19.9686 23.8848 19.4841 23.8615 19.0544 23.6723L7.19499 18.3989C6.8751 18.2581 6.52221 18.2094 6.17615 18.2585C5.8301 18.3076 5.50465 18.4524 5.23654 18.6767C4.96843 18.9009 4.76833 19.1956 4.65884 19.5276C4.54934 19.8595 4.5348 20.2154 4.61686 20.5552L10.57 45.938Z" stroke="#ED6E77" stroke-width="2" stroke-linecap="round" stroke-linejoin="round"/>
<path d="M22.5 37.8984C27.4855 37.3594 32.5145 37.3594 37.5 37.8984" stroke="#ED6E77" stroke-width="2" stroke-linecap="round" stroke-linejoin="round"/>
</g>
<defs>
<clipPath id="clip0_2109_4163">
<rect width="60" height="60" fill="white"/>
</clipPath>
</defs>
</svg>
