<svg width="60" height="60" viewBox="0 0 60 60" fill="none" xmlns="http://www.w3.org/2000/svg">
<path d="M52.5 13.125H7.5C6.46447 13.125 5.625 13.9645 5.625 15V20.625C5.625 21.6605 6.46447 22.5 7.5 22.5H52.5C53.5355 22.5 54.375 21.6605 54.375 20.625V15C54.375 13.9645 53.5355 13.125 52.5 13.125Z" stroke="#ED6E77" stroke-width="2" stroke-linecap="round" stroke-linejoin="round"/>
<path d="M50.625 22.5V45C50.625 45.4973 50.4275 45.9742 50.0758 46.3258C49.7242 46.6775 49.2473 46.875 48.75 46.875H11.25C10.7527 46.875 10.2758 46.6775 9.92418 46.3258C9.57254 45.9742 9.375 45.4973 9.375 45V22.5" stroke="#ED6E77" stroke-width="2" stroke-linecap="round" stroke-linejoin="round"/>
<path d="M24.375 31.875H35.625" stroke="#ED6E77" stroke-width="2" stroke-linecap="round" stroke-linejoin="round"/>
</svg>
