<svg xmlns="http://www.w3.org/2000/svg" width="60" height="60" fill="none">
  <g clip-path="url(#a)">
    <path stroke="#ED6E77" stroke-linecap="round" stroke-linejoin="round" stroke-width="2" d="M9.375 15v30a3.75 3.75 0 0 0 3.75 3.75h37.5a1.875 1.875 0 0 0 1.875-1.875v-26.25a1.875 1.875 0 0 0-1.875-1.875h-37.5A3.75 3.75 0 0 1 9.375 15Zm0 0a3.75 3.75 0 0 1 3.75-3.75H45"/>
    <path fill="#ED6E77" d="M42.188 36.563a2.813 2.813 0 1 0 0-5.626 2.813 2.813 0 0 0 0 5.625Z"/>
  </g>
  <defs>
    <clipPath id="a">
      <path fill="#fff" d="M0 0h60v60H0z"/>
    </clipPath>
  </defs>
</svg>
