<svg xmlns="http://www.w3.org/2000/svg" width="60" height="60" fill="none">
  <g stroke="#ED6E77" stroke-linecap="round" stroke-linejoin="round" stroke-width="2" clip-path="url(#a)">
    <path d="M13.125 50.625H11.25a1.875 1.875 0 0 1-1.875-1.875v-1.875M26.25 20.625h-5.625M26.25 50.625H22.5M39.375 39.375V33.75M9.375 37.5v-3.75M35.625 50.625H37.5a1.875 1.875 0 0 0 1.875-1.875v-1.875M35.625 20.625H37.5a1.875 1.875 0 0 1 1.875 1.875v1.875M13.125 20.625H11.25A1.875 1.875 0 0 0 9.375 22.5v1.875"/>
    <path d="M39.375 39.375h9.375a1.875 1.875 0 0 0 1.875-1.875V11.25a1.875 1.875 0 0 0-1.875-1.875H22.5a1.875 1.875 0 0 0-1.875 1.875v9.375"/>
  </g>
  <defs>
    <clipPath id="a">
      <path fill="#fff" d="M0 0h60v60H0z"/>
    </clipPath>
  </defs>
</svg>
