<svg width="60" height="60" viewBox="0 0 60 60" fill="none" xmlns="http://www.w3.org/2000/svg">
<g clip-path="url(#clip0_2109_3956)">
<path d="M7.99203 32.9768C5.89052 29.4362 5.15392 25.2502 5.92058 21.205C6.68724 17.1597 8.9044 13.5336 12.1557 11.0075C15.4069 8.48137 19.4686 7.22918 23.5778 7.48607C27.687 7.74295 31.5611 9.49124 34.4725 12.4026C37.3838 15.3139 39.1321 19.188 39.389 23.2972C39.6459 27.4065 38.3937 31.4681 35.8676 34.7194C33.3415 37.9707 29.7153 40.1878 25.6701 40.9545C21.6248 41.7211 17.4388 40.9845 13.8983 38.883L8.06234 40.5471C7.82189 40.6147 7.56776 40.617 7.32611 40.5539C7.08445 40.4907 6.86398 40.3643 6.68736 40.1877C6.51074 40.0111 6.38435 39.7906 6.32118 39.549C6.25802 39.3073 6.26036 39.0532 6.32796 38.8127L7.99203 32.9768Z" stroke="#ED6E77" stroke-width="2" stroke-linecap="round" stroke-linejoin="round"/>
<path d="M21.5859 41.2266C22.412 43.5817 23.7508 45.7239 25.5058 47.4985C27.2607 49.2731 29.3879 50.6357 31.7337 51.4879C34.0795 52.3401 36.5853 52.6606 39.07 52.4262C41.5548 52.1919 43.9565 51.4086 46.1016 50.1328L51.9375 51.7969C52.178 51.8645 52.4321 51.8668 52.6737 51.8037C52.9154 51.7405 53.1359 51.6141 53.3125 51.4375C53.4891 51.2609 53.6155 51.0404 53.6787 50.7987C53.7418 50.5571 53.7395 50.303 53.6719 50.0625L52.0078 44.2266C53.4934 41.7328 54.3097 38.8977 54.3776 35.9957C54.4454 33.0938 53.7625 30.2236 52.3951 27.6632C51.0277 25.1027 49.022 22.9389 46.5725 21.3814C44.123 19.824 41.3128 18.9256 38.4141 18.7734" stroke="#ED6E77" stroke-width="2" stroke-linecap="round" stroke-linejoin="round"/>
</g>
<defs>
<clipPath id="clip0_2109_3956">
<rect width="60" height="60" fill="white"/>
</clipPath>
</defs>
</svg>
