<svg width="60" height="60" viewBox="0 0 60 60" fill="none" xmlns="http://www.w3.org/2000/svg">
<g clip-path="url(#clip0_2109_4141)">
<path d="M52.5 13.125H7.5C6.46447 13.125 5.625 13.9645 5.625 15V45C5.625 46.0355 6.46447 46.875 7.5 46.875H52.5C53.5355 46.875 54.375 46.0355 54.375 45V15C54.375 13.9645 53.5355 13.125 52.5 13.125Z" stroke="#ED6E77" stroke-width="2" stroke-linecap="round" stroke-linejoin="round"/>
<path d="M11.625 20.25C12.6605 20.25 13.5 19.4105 13.5 18.375C13.5 17.3395 12.6605 16.5 11.625 16.5C10.5895 16.5 9.75 17.3395 9.75 18.375C9.75 19.4105 10.5895 20.25 11.625 20.25Z" fill="#ED6E77"/>
<path d="M14.625 20.25C15.6605 20.25 16.5 19.4105 16.5 18.375C16.5 17.3395 15.6605 16.5 14.625 16.5C13.5895 16.5 12.75 17.3395 12.75 18.375C12.75 19.4105 13.5895 20.25 14.625 20.25Z" fill="#ED6E77"/>
<path d="M39.375 39.375H46.875" stroke="#ED6E77" stroke-width="2" stroke-linecap="round" stroke-linejoin="round"/>
<path d="M28.125 39.375H31.875" stroke="#ED6E77" stroke-width="2" stroke-linecap="round" stroke-linejoin="round"/>
<path d="M5.625 22.7109H54.375" stroke="#ED6E77" stroke-width="2" stroke-linecap="round" stroke-linejoin="round"/>
</g>
<defs>
<clipPath id="clip0_2109_4141">
<rect width="60" height="60" fill="white"/>
</clipPath>
</defs>
</svg>
