<svg xmlns="http://www.w3.org/2000/svg" width="60" height="60" fill="none">
  <g clip-path="url(#a)">
    <path stroke="#ED6E77" stroke-linecap="round" stroke-linejoin="round" stroke-width="2" d="M52.5 13.125h-45c-1.036 0-1.875.84-1.875 1.875v30c0 1.035.84 1.875 1.875 1.875h45c1.035 0 1.875-.84 1.875-1.875V15c0-1.036-.84-1.875-1.875-1.875Z"/>
    <path fill="#ED6E77" d="M11.625 20.25a1.875 1.875 0 1 0 0-3.75 1.875 1.875 0 0 0 0 3.75Z"/>
    <path fill="#ED6E77" d="M14.625 20.25a1.875 1.875 0 1 0 0-3.75 1.875 1.875 0 0 0 0 3.75Z"/>
    <path stroke="#ED6E77" stroke-linecap="round" stroke-linejoin="round" stroke-width="2" d="M39.375 39.375h7.5M28.125 39.375h3.75M5.625 22.71h48.75"/>
  </g>
  <defs>
    <clipPath id="a">
      <path fill="#fff" d="M0 0h60v60H0z"/>
    </clipPath>
  </defs>
</svg>
