<svg width="30" height="30" viewBox="0 0 30 30" fill="none" xmlns="http://www.w3.org/2000/svg">
<g clip-path="url(#clip0_91_9347)">
<path d="M3.99601 16.4884C2.94526 14.7181 2.57696 12.6251 2.96029 10.6025C3.34362 8.57987 4.4522 6.76678 6.07783 5.50373C7.70346 4.24069 9.73429 3.61459 11.7889 3.74303C13.8435 3.87148 15.7806 4.74562 17.2362 6.20129C18.6919 7.65696 19.5661 9.59401 19.6945 11.6486C19.8229 13.7032 19.1968 15.7341 17.9338 17.3597C16.6708 18.9853 14.8577 20.0939 12.835 20.4772C10.8124 20.8606 8.71941 20.4923 6.94914 19.4415L4.03117 20.2735C3.91094 20.3073 3.78388 20.3085 3.66305 20.2769C3.54222 20.2454 3.43199 20.1822 3.34368 20.0939C3.25537 20.0055 3.19217 19.8953 3.16059 19.7745C3.12901 19.6536 3.13018 19.5266 3.16398 19.4064L3.99601 16.4884Z" stroke="#ED6E77" stroke-width="2" stroke-linecap="round" stroke-linejoin="round"/>
<path d="M10.793 20.6133C11.206 21.7908 11.8754 22.862 12.7529 23.7492C13.6304 24.6365 14.694 25.3178 15.8668 25.7439C17.0397 26.17 18.2926 26.3303 19.535 26.2131C20.7774 26.0959 21.9782 25.7043 23.0508 25.0664L25.9688 25.8984C26.089 25.9322 26.216 25.9334 26.3369 25.9018C26.4577 25.8702 26.5679 25.807 26.6562 25.7187C26.7445 25.6304 26.8077 25.5202 26.8393 25.3994C26.8709 25.2785 26.8697 25.1515 26.8359 25.0313L26.0039 22.1133C26.7467 20.8664 27.1549 19.4488 27.1888 17.9979C27.2227 16.5469 26.8813 15.1118 26.1975 13.8316C25.5138 12.5514 24.511 11.4695 23.2863 10.6907C22.0615 9.91198 20.6564 9.46281 19.207 9.38672" stroke="#ED6E77" stroke-width="2" stroke-linecap="round" stroke-linejoin="round"/>
</g>
<defs>
<clipPath id="clip0_91_9347">
<rect width="30" height="30" fill="white"/>
</clipPath>
</defs>
</svg>
