<svg xmlns="http://www.w3.org/2000/svg" width="60" height="60" fill="none">
  <path stroke="#ED6E77" stroke-linecap="round" stroke-linejoin="round" stroke-width="2" d="M24.375 11.25h-11.25c-1.036 0-1.875.84-1.875 1.875v11.25c0 1.035.84 1.875 1.875 1.875h11.25c1.035 0 1.875-.84 1.875-1.875v-11.25c0-1.036-.84-1.875-1.875-1.875ZM24.375 33.75h-11.25c-1.036 0-1.875.84-1.875 1.875v11.25c0 1.035.84 1.875 1.875 1.875h11.25c1.035 0 1.875-.84 1.875-1.875v-11.25c0-1.035-.84-1.875-1.875-1.875ZM46.875 11.25h-11.25c-1.035 0-1.875.84-1.875 1.875v11.25c0 1.035.84 1.875 1.875 1.875h11.25c1.035 0 1.875-.84 1.875-1.875v-11.25c0-1.036-.84-1.875-1.875-1.875ZM33.75 33.75v7.5M33.75 48.75h7.5v-15M41.25 37.5h7.5M48.75 45v3.75"/>
</svg>
