<svg xmlns="http://www.w3.org/2000/svg" width="60" height="60" fill="none">
  <g stroke="#ED6E77" stroke-linecap="round" stroke-linejoin="round" stroke-width="2" clip-path="url(#a)">
    <path d="M22.032 14.392a4.687 4.687 0 0 1 8.11-4.688l7.03 12.164"/>
    <path d="m15.798 22.313-3.75-6.492a4.687 4.687 0 0 1 8.109-4.687l7.969 13.804"/>
    <path d="M36.094 38.742a9.35 9.35 0 0 1 3.422-12.796l-2.344-4.079a4.694 4.694 0 0 1 8.133-4.687l4.687 8.133a18.754 18.754 0 1 1-32.484 18.75L7.664 27a4.694 4.694 0 1 1 8.133-4.687l5.156 8.93M19.008 56.25a25.851 25.851 0 0 1-7.758-8.438M41.25 7.266a12.117 12.117 0 0 1 10.547 6.093"/>
  </g>
  <defs>
    <clipPath id="a">
      <path fill="#fff" d="M0 0h60v60H0z"/>
    </clipPath>
  </defs>
</svg>
