<svg xmlns="http://www.w3.org/2000/svg" width="30" height="30" fill="none">
  <g clip-path="url(#a)">
    <path stroke="#ED6E77" stroke-linecap="round" stroke-linejoin="round" stroke-width="2" d="M24.375 4.688H5.625a.937.937 0 0 0-.938.937v18.75c0 .518.42.938.938.938h18.75c.518 0 .938-.42.938-.938V5.625a.937.937 0 0 0-.938-.938Z"/>
    <path stroke="#ED6E77" stroke-linecap="round" stroke-linejoin="round" stroke-width="2" d="m25.313 18.748-4.957-4.957a.937.937 0 0 0-1.337 0l-5.226 5.227a.939.939 0 0 1-1.336 0l-2.414-2.414a.937.937 0 0 0-1.336 0l-4.02 4.02"/>
    <path fill="#ED6E77" d="M11.719 12.188a1.406 1.406 0 1 0 0-2.813 1.406 1.406 0 0 0 0 2.813Z"/>
  </g>
  <defs>
    <clipPath id="a">
      <path fill="#fff" d="M0 0h30v30H0z"/>
    </clipPath>
  </defs>
</svg>
