<svg xmlns="http://www.w3.org/2000/svg" width="60" height="60" fill="none">
  <path stroke="#ED6E77" stroke-linecap="round" stroke-linejoin="round" stroke-width="2" d="M52.5 41.556v-23.11a1.899 1.899 0 0 0-.96-1.64L30.913 5.203a1.828 1.828 0 0 0-1.828 0L8.46 16.805a1.898 1.898 0 0 0-.961 1.641v23.11a1.898 1.898 0 0 0 .96 1.64l20.626 11.602a1.829 1.829 0 0 0 1.828 0L51.54 43.196a1.898 1.898 0 0 0 .961-1.64Z"/>
  <path stroke="#ED6E77" stroke-linecap="round" stroke-linejoin="round" stroke-width="2" d="M52.242 17.484 30.211 30 7.758 17.484M30.21 30 30 55.031"/>
  <path stroke="#ED6E77" stroke-linecap="round" stroke-linejoin="round" stroke-width="2" d="M41.484 11.133 30 17.602l-11.484-6.47M41.25 48.984V36.07l11.25-6.328M18.75 48.984V36.07L7.5 29.742"/>
</svg>
