<svg width="60" height="60" viewBox="0 0 60 60" fill="none" xmlns="http://www.w3.org/2000/svg">
<g clip-path="url(#clip0_2109_3934)">
<path d="M52.5 41.5555V18.4461C52.4982 18.1123 52.4084 17.7849 52.2397 17.4968C52.071 17.2088 51.8293 16.9703 51.5391 16.8055L30.9141 5.20391C30.6362 5.04346 30.3209 4.95898 30 4.95898C29.6791 4.95898 29.3638 5.04346 29.0859 5.20391L8.46094 16.8055C8.17067 16.9703 7.92899 17.2088 7.76028 17.4968C7.59157 17.7849 7.50179 18.1123 7.5 18.4461V41.5555C7.50179 41.8893 7.59157 42.2167 7.76028 42.5047C7.92899 42.7928 8.17067 43.0313 8.46094 43.1961L29.0859 54.7977C29.3638 54.9581 29.6791 55.0426 30 55.0426C30.3209 55.0426 30.6362 54.9581 30.9141 54.7977L51.5391 43.1961C51.8293 43.0313 52.071 42.7928 52.2397 42.5047C52.4084 42.2167 52.4982 41.8893 52.5 41.5555Z" stroke="#ED6E77" stroke-width="2" stroke-linecap="round" stroke-linejoin="round"/>
<path d="M41.4844 35.7422V23.5547L18.75 11.0156" stroke="#ED6E77" stroke-width="2" stroke-linecap="round" stroke-linejoin="round"/>
<path d="M52.2422 17.4844L30.2109 30L7.75781 17.4844" stroke="#ED6E77" stroke-width="2" stroke-linecap="round" stroke-linejoin="round"/>
<path d="M30.2109 30L30 55.0313" stroke="#ED6E77" stroke-width="2" stroke-linecap="round" stroke-linejoin="round"/>
</g>
<defs>
<clipPath id="clip0_2109_3934">
<rect width="60" height="60" fill="white"/>
</clipPath>
</defs>
</svg>
