<svg xmlns="http://www.w3.org/2000/svg" width="60" height="60" fill="none">
  <g stroke="#ED6E77" stroke-linecap="round" stroke-linejoin="round" stroke-width="2" clip-path="url(#a)">
    <path d="M33.125 12.813h-6.25M26.875 47.188h6.25M40.938 12.813h4.687a1.563 1.563 0 0 1 1.563 1.562v4.688M47.188 33.125v-6.25M40.938 47.188h4.687a1.563 1.563 0 0 0 1.563-1.563v-4.688M12.813 26.875v6.25M19.063 47.188h-4.688a1.563 1.563 0 0 1-1.563-1.563v-4.688M19.063 12.813h-4.688a1.563 1.563 0 0 0-1.563 1.562v4.688M39.375 20.625h-18.75v18.75h18.75v-18.75Z"/>
  </g>
  <defs>
    <clipPath id="a">
      <path fill="#fff" d="M5 5h50v50H5z"/>
    </clipPath>
  </defs>
</svg>
