<svg width="60" height="60" viewBox="0 0 60 60" fill="none" xmlns="http://www.w3.org/2000/svg">
<path d="M51.8278 31.1953L29.2809 53.7422C28.5749 54.4378 27.6236 54.8278 26.6325 54.8278C25.6413 54.8278 24.69 54.4378 23.984 53.7422L4.08557 33.8438C3.38994 33.1378 3 32.1864 3 31.1953C3 30.2042 3.38994 29.2529 4.08557 28.5469L26.6325 6L51.8278 31.1953Z" stroke="#ED6E77" stroke-width="2" stroke-linecap="round" stroke-linejoin="round"/>
<path d="M28.625 34.125C31.2138 34.125 33.3125 32.0263 33.3125 29.4375C33.3125 26.8487 31.2138 24.75 28.625 24.75C26.0362 24.75 23.9375 26.8487 23.9375 29.4375C23.9375 32.0263 26.0362 34.125 28.625 34.125Z" stroke="#ED6E77" stroke-width="2" stroke-linecap="round" stroke-linejoin="round"/>
<path d="M48.3125 50.0625C48.3125 45.375 53 40.6875 53 40.6875C53 40.6875 57.6875 45.375 57.6875 50.0625C57.6875 51.3057 57.1936 52.498 56.3146 53.3771C55.4355 54.2561 54.2432 54.75 53 54.75C51.7568 54.75 50.5645 54.2561 49.6854 53.3771C48.8064 52.498 48.3125 51.3057 48.3125 50.0625Z" stroke="#ED6E77" stroke-width="2" stroke-linecap="round" stroke-linejoin="round"/>
<path d="M25.3203 26.1328L8.44531 9.25781" stroke="#ED6E77" stroke-width="2" stroke-linecap="round" stroke-linejoin="round"/>
</svg>
