<svg xmlns="http://www.w3.org/2000/svg" width="60" height="60" fill="none">
  <g stroke="#ED6E77" stroke-linecap="round" stroke-linejoin="round" stroke-width="2" clip-path="url(#a)">
    <path d="M37.5 20.625H11.25c-1.036 0-1.875.84-1.875 1.875v26.25c0 1.035.84 1.875 1.875 1.875H37.5c1.035 0 1.875-.84 1.875-1.875V22.5c0-1.035-.84-1.875-1.875-1.875ZM37.5 9.375h-3.75M46.875 9.375h1.875a1.875 1.875 0 0 1 1.875 1.875v1.875M50.625 26.25V22.5M46.875 39.375h1.875a1.875 1.875 0 0 0 1.875-1.875v-1.875M24.375 9.375H22.5a1.875 1.875 0 0 0-1.875 1.875v1.875"/>
  </g>
  <defs>
    <clipPath id="a">
      <path fill="#fff" d="M0 0h60v60H0z"/>
    </clipPath>
  </defs>
</svg>
