<svg width="60" height="60" viewBox="0 0 60 60" fill="none" xmlns="http://www.w3.org/2000/svg">
<g clip-path="url(#clip0_2109_4069)">
<path d="M18.75 37.5H48.75C49.2473 37.5 49.7242 37.3025 50.0758 36.9508C50.4275 36.5992 50.625 36.1223 50.625 35.625V11.25C50.625 10.7527 50.4275 10.2758 50.0758 9.92418C49.7242 9.57254 49.2473 9.375 48.75 9.375H22.5C22.0027 9.375 21.5258 9.57254 21.1742 9.92418C20.8225 10.2758 20.625 10.7527 20.625 11.25V13.125" stroke="#ED6E77" stroke-width="2" stroke-linecap="round" stroke-linejoin="round"/>
<path d="M24.375 31.875L18.75 37.5L24.375 43.125" stroke="#ED6E77" stroke-width="2" stroke-linecap="round" stroke-linejoin="round"/>
<path d="M41.25 22.5H11.25C10.7527 22.5 10.2758 22.6975 9.92418 23.0492C9.57254 23.4008 9.375 23.8777 9.375 24.375V48.75C9.375 49.2473 9.57254 49.7242 9.92418 50.0758C10.2758 50.4275 10.7527 50.625 11.25 50.625H37.5C37.9973 50.625 38.4742 50.4275 38.8258 50.0758C39.1775 49.7242 39.375 49.2473 39.375 48.75V46.875" stroke="#ED6E77" stroke-width="2" stroke-linecap="round" stroke-linejoin="round"/>
<path d="M35.625 28.125L41.25 22.5L35.625 16.875" stroke="#ED6E77" stroke-width="2" stroke-linecap="round" stroke-linejoin="round"/>
</g>
<defs>
<clipPath id="clip0_2109_4069">
<rect width="60" height="60" fill="white"/>
</clipPath>
</defs>
</svg>
