<svg width="60" height="60" viewBox="0 0 60 60" fill="none" xmlns="http://www.w3.org/2000/svg">
<path d="M14.0625 24.375C17.6869 24.375 20.625 21.4369 20.625 17.8125C20.625 14.1881 17.6869 11.25 14.0625 11.25C10.4381 11.25 7.5 14.1881 7.5 17.8125C7.5 21.4369 10.4381 24.375 14.0625 24.375Z" stroke="#ED6E77" stroke-width="2" stroke-linecap="round" stroke-linejoin="round"/>
<path d="M14.0625 48.75C17.6869 48.75 20.625 45.8119 20.625 42.1875C20.625 38.5631 17.6869 35.625 14.0625 35.625C10.4381 35.625 7.5 38.5631 7.5 42.1875C7.5 45.8119 10.4381 48.75 14.0625 48.75Z" stroke="#ED6E77" stroke-width="2" stroke-linecap="round" stroke-linejoin="round"/>
<path d="M31.875 30L19.4766 38.4844" stroke="#ED6E77" stroke-width="2" stroke-linecap="round" stroke-linejoin="round"/>
<path d="M54.375 14.6016L38.5078 25.4531" stroke="#ED6E77" stroke-width="2" stroke-linecap="round" stroke-linejoin="round"/>
<path d="M54.375 45.3984L19.4766 21.5156" stroke="#ED6E77" stroke-width="2" stroke-linecap="round" stroke-linejoin="round"/>
</svg>
