<svg xmlns="http://www.w3.org/2000/svg" width="60" height="60" fill="none">
  <path stroke="#ED6E77" stroke-linecap="round" stroke-linejoin="round" stroke-width="2" d="m8.604 40.547 5.671-32.133a1.853 1.853 0 0 1 2.157-1.523l12.937 2.273a1.898 1.898 0 0 1 1.524 2.18l-5.696 32.32a8.46 8.46 0 0 1-9.632 6.867c-4.665-.75-7.782-5.32-6.961-9.984Z"/>
  <path stroke="#ED6E77" stroke-linecap="round" stroke-linejoin="round" stroke-width="2" d="m27.727 29.25 17.085-6.21a1.875 1.875 0 0 1 2.415 1.125l4.5 12.328a1.876 1.876 0 0 1-1.125 2.39L19.758 50.11"/>
  <path stroke="#ED6E77" stroke-linecap="round" stroke-linejoin="round" stroke-width="2" d="M51.563 38.086V48.75a1.875 1.875 0 0 1-1.876 1.875H16.876"/>
  <path fill="#ED6E77" d="M16.875 45a2.813 2.813 0 1 0 0-5.625 2.813 2.813 0 0 0 0 5.625Z"/>
</svg>
