<svg xmlns="http://www.w3.org/2000/svg" width="60" height="60" fill="none">
  <g stroke="#ED6E77" stroke-linecap="round" stroke-linejoin="round" stroke-width="2" clip-path="url(#a)">
    <path d="M3.75 28.125h52.5M52.5 43.125v5.625a1.875 1.875 0 0 1-1.875 1.875H45a1.875 1.875 0 0 1-1.875-1.875v-5.625M16.875 43.125v5.625A1.875 1.875 0 0 1 15 50.625H9.375A1.875 1.875 0 0 1 7.5 48.75v-5.625M15 35.625h3.75M41.25 35.625H45"/>
    <path d="m52.5 28.125-7.008-15.75a1.876 1.876 0 0 0-1.71-1.125H16.218a1.876 1.876 0 0 0-1.711 1.125L7.5 28.125v15h45v-15Z"/>
  </g>
  <defs>
    <clipPath id="a">
      <path fill="#fff" d="M0 0h60v60H0z"/>
    </clipPath>
  </defs>
</svg>
