<svg xmlns="http://www.w3.org/2000/svg" width="60" height="60" fill="none">
  <g stroke="#ED6E77" stroke-linecap="round" stroke-linejoin="round" stroke-width="2" clip-path="url(#a)">
    <path d="M22.5 28.125c10.355 0 18.75-3.778 18.75-8.438S32.855 11.25 22.5 11.25 3.75 15.028 3.75 19.688s8.395 8.437 18.75 8.437Z"/>
    <path d="M3.75 19.688v9.375c0 4.664 8.39 8.437 18.75 8.437s18.75-3.773 18.75-8.438v-9.375M15 27.422v9.375"/>
    <path d="M41.25 22.664c8.555.797 15 4.195 15 8.273 0 4.665-8.39 8.438-18.75 8.438-4.594 0-8.813-.75-12.07-1.969"/>
    <path d="M18.75 37.336v2.977c0 4.664 8.39 8.437 18.75 8.437s18.75-3.773 18.75-8.438v-9.374M45 38.672v9.375M30 27.422v20.625"/>
  </g>
  <defs>
    <clipPath id="a">
      <path fill="#fff" d="M0 0h60v60H0z"/>
    </clipPath>
  </defs>
</svg>
