<svg width="60" height="60" viewBox="0 0 60 60" fill="none" xmlns="http://www.w3.org/2000/svg">
<path d="M8.60367 40.547L14.2755 8.41422C14.3152 8.1717 14.4027 7.9395 14.533 7.73115C14.6633 7.5228 14.8338 7.34248 15.0344 7.20068C15.2351 7.05888 15.4621 6.95845 15.702 6.90525C15.9419 6.85204 16.19 6.84713 16.4318 6.89078L29.3693 9.16422C29.8581 9.25562 30.2915 9.53516 30.5764 9.94276C30.8613 10.3504 30.9749 10.8535 30.8927 11.3439L25.1974 43.6642C24.8074 45.8405 23.581 47.7777 21.7806 49.0611C19.9803 50.3446 17.7491 50.8723 15.5646 50.5314C10.9005 49.7814 7.78336 45.2111 8.60367 40.547Z" stroke="#ED6E77" stroke-width="2" stroke-linecap="round" stroke-linejoin="round"/>
<path d="M27.7266 29.2508L44.8125 23.0399C45.0448 22.9541 45.2918 22.9152 45.5392 22.9254C45.7866 22.9356 46.0295 22.9947 46.254 23.0993C46.4784 23.2039 46.6799 23.3519 46.8469 23.5348C47.0138 23.7177 47.1428 23.9319 47.2266 24.1649L51.7266 36.493C51.8925 36.9593 51.8674 37.4723 51.6567 37.9202C51.4459 38.368 51.0666 38.7143 50.6016 38.8837L19.7578 50.1102" stroke="#ED6E77" stroke-width="2" stroke-linecap="round" stroke-linejoin="round"/>
<path d="M51.5625 38.0859V48.75C51.5625 49.2473 51.365 49.7242 51.0133 50.0758C50.6617 50.4275 50.1848 50.625 49.6875 50.625H16.875" stroke="#ED6E77" stroke-width="2" stroke-linecap="round" stroke-linejoin="round"/>
<path d="M16.875 45C18.4283 45 19.6875 43.7408 19.6875 42.1875C19.6875 40.6342 18.4283 39.375 16.875 39.375C15.3217 39.375 14.0625 40.6342 14.0625 42.1875C14.0625 43.7408 15.3217 45 16.875 45Z" fill="#ED6E77"/>
</svg>
