<svg xmlns="http://www.w3.org/2000/svg" width="60" height="60" fill="none">
  <g stroke="#ED6E77" stroke-linecap="round" stroke-linejoin="round" stroke-width="2" clip-path="url(#a)">
    <path d="M48.75 9.375h-37.5c-1.036 0-1.875.84-1.875 1.875v37.5c0 1.035.84 1.875 1.875 1.875h37.5c1.035 0 1.875-.84 1.875-1.875v-37.5c0-1.036-.84-1.875-1.875-1.875Z"/>
    <path d="M22.055 27.68 30 35.625l7.945-7.945M30 16.875v18.75M9.375 37.5h8.602a1.853 1.853 0 0 1 1.312.54l4.547 4.546a1.851 1.851 0 0 0 1.312.539h9.704a1.85 1.85 0 0 0 1.312-.54l4.547-4.546a1.851 1.851 0 0 1 1.312-.539h8.602"/>
  </g>
  <defs>
    <clipPath id="a">
      <path fill="#fff" d="M0 0h60v60H0z"/>
    </clipPath>
  </defs>
</svg>
