<svg width="60" height="60" viewBox="0 0 60 60" fill="none" xmlns="http://www.w3.org/2000/svg">
<path d="M48.75 15.9375H11.25C10.3871 15.9375 9.6875 16.6371 9.6875 17.5V22.1875C9.6875 23.0504 10.3871 23.75 11.25 23.75H48.75C49.6129 23.75 50.3125 23.0504 50.3125 22.1875V17.5C50.3125 16.6371 49.6129 15.9375 48.75 15.9375Z" stroke="#ED6E77" stroke-width="2" stroke-linecap="round" stroke-linejoin="round"/>
<path d="M47.1875 23.75V42.5C47.1875 42.9144 47.0229 43.3118 46.7299 43.6049C46.4368 43.8979 46.0394 44.0625 45.625 44.0625H14.375C13.9606 44.0625 13.5632 43.8979 13.2701 43.6049C12.9771 43.3118 12.8125 42.9144 12.8125 42.5V23.75" stroke="#ED6E77" stroke-width="2" stroke-linecap="round" stroke-linejoin="round"/>
</svg>
