<svg xmlns="http://www.w3.org/2000/svg" width="60" height="60" fill="none">
  <path stroke="#ED6E77" stroke-linecap="round" stroke-linejoin="round" stroke-width="2" d="M51.828 31.195 29.28 53.742a3.774 3.774 0 0 1-5.297 0L4.086 33.844a3.774 3.774 0 0 1 0-5.297L26.632 6l25.196 25.195Z"/>
  <path stroke="#ED6E77" stroke-linecap="round" stroke-linejoin="round" stroke-width="2" d="M28.625 34.125a4.688 4.688 0 1 0 0-9.375 4.688 4.688 0 0 0 0 9.375ZM48.313 50.063c0-4.688 4.687-9.376 4.687-9.376s4.688 4.688 4.688 9.376a4.688 4.688 0 0 1-9.376 0ZM25.32 26.133 8.445 9.258"/>
</svg>
