<svg xmlns="http://www.w3.org/2000/svg" width="60" height="60" fill="none">
  <g clip-path="url(#a)">
    <g stroke="#ED6E77" stroke-width="2" clip-path="url(#b)">
      <path stroke-linecap="round" stroke-linejoin="round" d="M41.25 18.75h9.984a1.851 1.851 0 0 1 1.735 1.172l3.281 8.203M3.75 33.75h37.5"/>
      <path stroke-miterlimit="10" d="M44.063 50.625a5.625 5.625 0 1 0 0-11.25 5.625 5.625 0 0 0 0 11.25ZM15.938 50.625a5.625 5.625 0 1 0 0-11.25 5.625 5.625 0 0 0 0 11.25Z"/>
      <path stroke-linecap="round" stroke-linejoin="round" d="M38.438 45H21.561M10.313 45H5.625a1.875 1.875 0 0 1-1.875-1.875v-26.25A1.875 1.875 0 0 1 5.625 15H41.25v25.125M41.25 28.125h15v15A1.875 1.875 0 0 1 54.375 45h-4.688"/>
    </g>
  </g>
  <defs>
    <clipPath id="a">
      <path fill="#fff" d="M0 0h60v60H0z"/>
    </clipPath>
    <clipPath id="b">
      <path fill="#fff" d="M0 0h60v60H0z"/>
    </clipPath>
  </defs>
</svg>
