<svg width="60" height="60" viewBox="0 0 60 60" fill="none" xmlns="http://www.w3.org/2000/svg">
<g clip-path="url(#clip0_2109_4136)">
<path d="M48.4219 50.2267L10.9219 43.4064C10.4874 43.3291 10.094 43.1011 9.81108 42.7624C9.52813 42.4238 9.37371 41.9961 9.37501 41.5548V18.4454C9.37371 18.0041 9.52813 17.5765 9.81108 17.2378C10.094 16.8991 10.4874 16.6711 10.9219 16.5939L48.4219 9.77356C48.6921 9.72553 48.9696 9.73741 49.2348 9.80837C49.4999 9.87933 49.7462 10.0076 49.9564 10.1842C50.1665 10.3608 50.3353 10.5814 50.4508 10.8304C50.5663 11.0793 50.6258 11.3507 50.625 11.6251V48.3751C50.6258 48.6496 50.5663 48.9209 50.4508 49.1699C50.3353 49.4189 50.1665 49.6394 49.9564 49.816C49.7462 49.9926 49.4999 50.1209 49.2348 50.1919C48.9696 50.2628 48.6921 50.2747 48.4219 50.2267Z" stroke="#ED6E77" stroke-width="2" stroke-linecap="round" stroke-linejoin="round"/>
<path d="M3.75 30H56.25" stroke="#ED6E77" stroke-width="2" stroke-linecap="round" stroke-linejoin="round"/>
</g>
<defs>
<clipPath id="clip0_2109_4136">
<rect width="60" height="60" fill="white"/>
</clipPath>
</defs>
</svg>
