<svg width="60" height="60" viewBox="0 0 60 60" fill="none" xmlns="http://www.w3.org/2000/svg">
<g clip-path="url(#clip0_2109_4228)">
<path d="M22.032 14.3915C21.4716 13.3202 21.3468 12.0739 21.6837 10.9127C22.0205 9.75159 22.793 8.76551 23.8397 8.16047C24.8864 7.55543 26.1265 7.37822 27.3008 7.66585C28.4751 7.95349 29.4928 8.68373 30.1414 9.70403L37.1727 21.8681" stroke="#ED6E77" stroke-width="2" stroke-linecap="round" stroke-linejoin="round"/>
<path d="M15.7977 22.3134L12.0477 15.8212C11.4873 14.7499 11.3624 13.5035 11.6993 12.3424C12.0362 11.1813 12.8086 10.1952 13.8553 9.59016C14.9021 8.98512 16.1421 8.8079 17.3164 9.09554C18.4907 9.38318 19.5084 10.1134 20.157 11.1337L28.1258 24.9384" stroke="#ED6E77" stroke-width="2" stroke-linecap="round" stroke-linejoin="round"/>
<path d="M36.0939 38.7423C35.4763 37.6779 35.0749 36.5021 34.9127 35.2822C34.7504 34.0623 34.8305 32.8224 35.1484 31.6336C35.4663 30.4447 36.0157 29.3303 36.7652 28.3542C37.5146 27.3782 38.4493 26.5596 39.5158 25.9455L37.172 21.8673C36.5504 20.7888 36.3827 19.5076 36.7057 18.3055C37.0288 17.1033 37.8162 16.0788 38.8947 15.4572C39.9731 14.8356 41.2544 14.6679 42.4565 14.9909C43.6586 15.314 44.6832 16.1014 45.3048 17.1798L49.9923 25.3126C52.4787 29.6203 53.1521 34.7393 51.8642 39.5435C50.5764 44.3476 47.4328 48.4434 43.1251 50.9298C38.8174 53.4162 33.6984 54.0896 28.8943 52.8017C24.0901 51.5139 19.9943 48.3703 17.5079 44.0626L7.66419 27.0001C7.35641 26.4661 7.15681 25.8767 7.07681 25.2656C6.99681 24.6544 7.03797 24.0335 7.19793 23.4383C7.52099 22.2361 8.30837 21.2116 9.38685 20.59C10.4653 19.9684 11.7466 19.8007 12.9487 20.1237C14.1508 20.4468 15.1754 21.2342 15.797 22.3126L20.9533 31.2423" stroke="#ED6E77" stroke-width="2" stroke-linecap="round" stroke-linejoin="round"/>
<path d="M19.0078 56.25C15.8231 54.0534 13.172 51.1701 11.25 47.8125" stroke="#ED6E77" stroke-width="2" stroke-linecap="round" stroke-linejoin="round"/>
<path d="M41.25 7.26567C43.3895 7.25987 45.4923 7.82064 47.3448 8.89096C49.1973 9.96129 50.7334 11.503 51.7969 13.3594" stroke="#ED6E77" stroke-width="2" stroke-linecap="round" stroke-linejoin="round"/>
</g>
<defs>
<clipPath id="clip0_2109_4228">
<rect width="60" height="60" fill="white"/>
</clipPath>
</defs>
</svg>
