<svg xmlns="http://www.w3.org/2000/svg" width="60" height="60" fill="none">
  <g stroke="#ED6E77" stroke-linecap="round" stroke-linejoin="round" stroke-width="2" clip-path="url(#a)">
    <path d="M52.5 41.556v-23.11a1.899 1.899 0 0 0-.96-1.64L30.913 5.203a1.828 1.828 0 0 0-1.828 0L8.46 16.805a1.898 1.898 0 0 0-.961 1.641v23.11a1.898 1.898 0 0 0 .96 1.64l20.626 11.602a1.829 1.829 0 0 0 1.828 0L51.54 43.196a1.898 1.898 0 0 0 .961-1.64Z"/>
    <path d="M41.484 35.742V23.555L18.75 11.015"/>
    <path d="M52.242 17.484 30.211 30 7.758 17.484M30.21 30 30 55.031"/>
  </g>
  <defs>
    <clipPath id="a">
      <path fill="#fff" d="M0 0h60v60H0z"/>
    </clipPath>
  </defs>
</svg>
