<svg xmlns="http://www.w3.org/2000/svg" width="60" height="60" fill="none">
  <g stroke="#ED6E77" stroke-linecap="round" stroke-linejoin="round" stroke-width="2" clip-path="url(#a)">
    <path d="M10.57 45.938a1.898 1.898 0 0 0 2.344 1.383 63.984 63.984 0 0 1 34.148 0 1.9 1.9 0 0 0 2.344-1.383l5.977-25.383a1.875 1.875 0 0 0-2.579-2.156l-11.859 5.273a1.898 1.898 0 0 1-2.414-.797l-6.89-12.421a1.875 1.875 0 0 0-3.282 0l-6.89 12.421a1.898 1.898 0 0 1-2.415.797L7.195 18.4a1.875 1.875 0 0 0-2.578 2.156l5.953 25.383Z"/>
    <path d="M22.5 37.898a69.775 69.775 0 0 1 15 0"/>
  </g>
  <defs>
    <clipPath id="a">
      <path fill="#fff" d="M0 0h60v60H0z"/>
    </clipPath>
  </defs>
</svg>
