<svg xmlns="http://www.w3.org/2000/svg" width="60" height="60" fill="none">
  <g stroke="#ED6E77" stroke-linecap="round" stroke-linejoin="round" stroke-width="2" clip-path="url(#a)">
    <path d="M18.75 37.5h30a1.875 1.875 0 0 0 1.875-1.875V11.25a1.875 1.875 0 0 0-1.875-1.875H22.5a1.875 1.875 0 0 0-1.875 1.875v1.875"/>
    <path d="M24.375 31.875 18.75 37.5l5.625 5.625"/>
    <path d="M41.25 22.5h-30a1.875 1.875 0 0 0-1.875 1.875V48.75a1.875 1.875 0 0 0 1.875 1.875H37.5a1.875 1.875 0 0 0 1.875-1.875v-1.875"/>
    <path d="M35.625 28.125 41.25 22.5l-5.625-5.625"/>
  </g>
  <defs>
    <clipPath id="a">
      <path fill="#fff" d="M0 0h60v60H0z"/>
    </clipPath>
  </defs>
</svg>
