<svg xmlns="http://www.w3.org/2000/svg" width="43" height="45" fill="none">
  <g fill-rule="evenodd" clip-rule="evenodd">
    <path fill="#ED6E77" d="m41.45 14.298-7.246 3.063c1.014-1.677 2.174-3.793 2.536-5.981-7.826 1.094-13.188 4.814-17.464 11.598l-5.072-2.48c2.97-4.887 6.739-8.68 11.956-11.234-1.304-1.459-3.26-2.99-5.145-3.866-2.174 1.24-4.13 2.772-5.217 4.158.942.657 1.884 1.386 2.754 2.262-1.377 1.167-2.537 2.407-3.479 3.793-2.826-2.7-5.724-4.304-9.927-5.398.072 2.188.797 4.595 1.739 6.638L.363 14.079c-.58-3.21-.435-6.42.218-9.63 3.84.22 7.39 1.022 10.58 2.481 2.898-3.283 5.507-5.252 9.854-6.93 4.13 1.459 7.392 3.574 10.363 7.295 3.696-1.022 7.029-1.386 10.797-1.532.145 3.064 0 5.836-.725 8.535Z"/>
    <path fill="#AE9BA5" d="m9.206 30.563-.145-4.814 11.957 6.492 11.956-6.565v4.741L21.09 37.785 9.206 30.563ZM20.003 43.84l-15-10.067c-.507-.365-.87-.876-.87-1.605l-.217-10.286C2.902 20.57 1.597 18.82.946 16.703l20.144 9.265c6.884-3.283 11.812-5.617 19.42-8.973-.362.802-1.593 3.21-2.246 4.012v10.942c0 .657-.29 1.24-.87 1.605-5.362 3.428-9.927 6.857-15.29 10.213-.651.51-1.448.51-2.1.073Z"/>
  </g>
</svg>
