<svg xmlns="http://www.w3.org/2000/svg" width="106" height="40" fill="none">
  <g clip-path="url(#a)">
    <path fill="#ED6E77" fill-rule="evenodd" d="m52.59 12.852-6.649 2.755c.931-1.509 1.995-3.41 2.327-5.377-7.18.983-12.1 4.327-16.023 10.426l-4.654-2.23c2.726-4.393 6.183-7.803 10.97-10.098-1.197-1.312-2.992-2.689-4.72-3.476-1.995 1.115-3.79 2.492-4.788 3.738.865.59 1.73 1.246 2.527 2.033-1.263 1.05-2.327 2.164-3.191 3.41-2.593-2.426-5.253-3.87-9.11-4.853.067 1.968.732 4.132 1.597 5.968l-5.984-2.492c-.532-2.886-.4-5.77.2-8.656 3.523.197 6.78.918 9.706 2.23 2.66-2.951 5.053-4.722 9.043-6.23 3.79 1.311 6.781 3.213 9.507 6.557 3.391-.918 6.45-1.246 9.907-1.377.133 2.754 0 5.246-.665 7.672Z" clip-rule="evenodd"/>
    <path fill="#AE9BA5" fill-rule="evenodd" d="m23.005 27.475-.133-4.328 10.97 5.836 10.971-5.902v4.262l-10.904 6.623-10.904-6.491Zm9.907 11.934-13.763-9.05c-.465-.327-.798-.786-.798-1.442l-.2-9.246c-.93-1.18-2.127-2.754-2.725-4.655l18.483 8.327c6.316-2.95 10.837-5.049 17.819-8.065-.333.721-1.463 2.885-2.061 3.606v9.837a1.64 1.64 0 0 1-.798 1.442c-4.92 3.082-9.109 6.164-14.029 9.18-.598.46-1.33.46-1.928.066Z" clip-rule="evenodd"/>
    <path fill="#AE9BA5" d="M105.516 23.082c0-.59-.133-1.18-.332-1.705-.333-.787-.931-1.377-1.729-1.836-1.197-.72-3.324-1.049-6.25-1.049h-.066c-2.925 0-5.053.328-6.25 1.05-.798.458-1.396 1.048-1.728 1.835-.266.525-.333 1.115-.333 1.837 0 .72.133 1.311.399 1.77.465.852 1.197 1.443 2.061 1.836.4.197.997.328 1.596.46.665.13 1.33.196 1.928.196.598.065 1.396.065 2.327.13l2.593.132c.399 0 .532.066.864.197.333.131.532.328.532.655.067.59-.399.984-1.263 1.18-.598.132-1.463.198-2.66.198h-.066c-1.263 0-2.128-.066-2.726-.197a1.77 1.77 0 0 1-.93-.46c-.2-.196-.267-.458-.267-.917v-.066h-4.388v.328c0 .656.133 1.18.333 1.705.332.787.93 1.377 1.728 1.836 1.197.721 3.325 1.05 6.25 1.05h.067c2.925 0 4.986-.329 6.249-1.115.798-.46 1.396-1.05 1.729-1.836.266-.525.332-1.18.332-1.837 0-.72-.133-1.311-.399-1.77-.465-.918-1.196-1.508-2.061-1.836-.399-.197-.93-.328-1.595-.46a19.487 19.487 0 0 0-1.928-.262c-.599-.065-1.397-.065-2.394-.065l-2.526-.131c-.4-.066-.532-.066-.865-.197a.78.78 0 0 1-.598-.59c-.067-.59.266-.984 1.13-1.18.598-.132 1.463-.197 2.66-.197h.199c1.263 0 2.128.065 2.726.197.465.065.731.262.931.459.199.13.266.459.266.918v.065h4.388l.066-.328ZM86.635 22.544v-3.345H72.14v13.967h14.494v-3.344h-10.24v-1.967h9.376v-3.344h-9.375v-1.967h10.239ZM69.944 18.953h-5.652l-3.39 3.803-3.391-3.803h-5.652l6.184 6.95-6.184 7.017h5.652l3.39-3.803 3.391 3.803h5.652l-6.25-7.016 6.25-6.95ZM10.239 22.297c.598 0 1.064.394 1.064.984s-.466.984-1.064.984H4.255v-1.968h5.984Zm.465 7.28H4.255v-1.968h6.45c.598 0 1.13.328 1.13.983 0 .59-.532.984-1.13.984Zm4.521-8c-.199-.526-.531-.985-.93-1.378a3.964 3.964 0 0 0-1.396-.918c-.532-.197-1.264-.328-2.195-.328H0V32.92h11.17c.93 0 1.662-.13 2.194-.328a3.963 3.963 0 0 0 1.396-.918c.399-.393.665-.852.93-1.377.4-.918.4-1.836.067-2.754-.332-.918-.797-1.573-1.462-1.901.266-.197.532-.525.731-.853.2-.393.332-.852.399-1.377.2-.656.066-1.246-.2-1.836Z"/>
  </g>
  <defs>
    <clipPath id="a">
      <path fill="#fff" d="M0 0h106v40H0z"/>
    </clipPath>
  </defs>
</svg>
