<svg xmlns="http://www.w3.org/2000/svg" width="40" height="40" fill="none">
  <rect width="39" height="39" x=".5" y=".5" stroke="#E4DEE0" rx="19.5"/>
  <path fill="#AE9BA5" d="M25.658 14.85a4.103 4.103 0 0 1-.354-.207 4.985 4.985 0 0 1-.91-.773 4.292 4.292 0 0 1-1.026-2.116h.004c-.078-.458-.046-.754-.041-.754H20.24v11.954c0 .16 0 .319-.007.476l-.003.058c0 .009 0 .018-.002.027v.006a2.625 2.625 0 0 1-1.32 2.084c-.39.221-.831.338-1.28.337a2.616 2.616 0 0 1-2.607-2.625 2.616 2.616 0 0 1 2.607-2.625c.273 0 .544.043.803.128l.004-3.148a5.743 5.743 0 0 0-4.425 1.294 6.065 6.065 0 0 0-1.324 1.633c-.13.225-.623 1.129-.682 2.596-.038.833.212 1.696.332 2.052v.008c.075.21.365.927.839 1.53.382.485.833.91 1.339 1.264v-.008l.007.008c1.497 1.017 3.156.95 3.156.95.288-.011 1.25 0 2.342-.518a5.878 5.878 0 0 0 1.902-1.43 5.94 5.94 0 0 0 1.037-1.721 6.45 6.45 0 0 0 .373-1.97v-6.342c.037.023.537.353.537.353s.72.461 1.842.762c.806.213 1.89.258 1.89.258v-3.069c-.38.042-1.152-.078-1.942-.472Z"/>
</svg>
