<svg xmlns="http://www.w3.org/2000/svg" width="50" height="50" fill="none">
  <rect width="49" height="49" x=".5" y=".5" stroke="#E4DEE0" rx="24.5"/>
  <g fill="#AE9BA5">
    <path d="M34.522 27.447c-.59 4.878-4.074 5.183-4.72 5.396-.274.091-2.814.737-6.011.524l-3.46 3.837-.006-4.422-.024-.006c-4.653-1.322-4.495-6.285-4.446-8.886.055-2.6.53-4.738 1.949-6.17 2.546-2.363 7.802-2.01 7.802-2.01 4.434.019 6.56 1.39 7.052 1.846 1.639 1.431 2.473 4.866 1.864 9.89Zm-.651-11.11c-.585-.547-2.936-2.295-8.18-2.32 0 0-6.182-.383-9.197 2.449-1.675 1.717-2.265 4.233-2.332 7.351-.061 3.118-.14 8.96 5.36 10.543h.006v2.418s-.037.98.596 1.175c.762.244 1.206-.5 1.937-1.303a54.45 54.45 0 0 0 1.364-1.578c3.764.323 6.657-.42 6.98-.524.761-.255 5.055-.816 5.755-6.657.713-6.029-.359-9.836-2.29-11.553Z"/>
    <path d="M30.517 28.177s-.707-.603-1.048-.858c-.323-.244-.84-.573-1.127-.737-.517-.293-1.047-.11-1.267.182l-.456.585c-.232.299-.591.244-.683.225-.67-.17-1.382-.584-2.113-1.29-.737-.713-1.188-1.456-1.346-2.23l-.012-.049c-.043-.316.012-.462.14-.682l.024-.018c.305-.286.877-.633.95-.962.226-.573-.749-1.773-.883-1.98 0 0-.706-.931-.956-1.114-.268-.226-.688-.354-1.114-.092l-.025.019c-1.218.822-1.656 1.297-1.534 1.997l.06.287c.616 1.942 1.81 4.013 3.582 5.859 1.754 1.82 3.654 2.91 5.524 3.666.487.165.992.024 1.51-.42l.006-.006c.396-.372.713-.768.944-1.194v-.006c.238-.47.159-.895-.177-1.182ZM27.604 23.92a.145.145 0 0 1-.14-.134c-.025-.505-.159-.889-.402-1.145-.244-.255-.603-.395-1.078-.426-.08-.006-.134-.073-.134-.152.006-.08.067-.14.146-.134.548.03.968.2 1.26.512.293.31.457.755.482 1.333a.143.143 0 0 1-.134.153"/>
    <path d="M28.986 24.395a.143.143 0 0 1-.14-.147c.025-.968-.262-1.784-.84-2.43a2.996 2.996 0 0 0-1.041-.755 4.078 4.078 0 0 0-1.395-.329.138.138 0 0 1-.128-.152.143.143 0 0 1 .152-.134c1.115.085 1.998.481 2.625 1.181.627.7.938 1.59.914 2.632a.146.146 0 0 1-.146.134Z"/>
    <path d="M30.406 24.968c-.08 0-.14-.061-.14-.14-.007-.853-.134-1.627-.384-2.296a4.92 4.92 0 0 0-1.109-1.742 5.081 5.081 0 0 0-1.65-1.109 5.281 5.281 0 0 0-2.016-.377.143.143 0 0 1-.14-.147c0-.079.06-.14.14-.14 1.535.012 2.832.536 3.861 1.566a5.09 5.09 0 0 1 1.176 1.845c.262.7.396 1.51.402 2.4 0 .073-.061.134-.14.14Z"/>
  </g>
</svg>
