<svg xmlns="http://www.w3.org/2000/svg" width="40" height="40" fill="none">
  <rect width="39" height="39" x=".5" y=".5" stroke="#E4DEE0" rx="19.5"/>
  <path fill="#fff" d="M29.662 15.196c0-.069 0-.137-.067-.206v-.137c-.27-.755-.946-1.304-1.825-1.304h.135S24.527 13 20 13s-7.905.549-7.905.549h.135c-.811 0-1.554.549-1.825 1.304v.137c0 .069-.067.137-.067.206A33.691 33.691 0 0 0 10 20c0 2.128.203 3.912.338 4.804 0 .069 0 .137.067.206v.137c.27.755.946 1.304 1.825 1.304h-.135S15.473 27 20 27s7.905-.549 7.905-.549h-.135c.811 0 1.554-.549 1.825-1.304v-.137c0-.069.067-.137.067-.206.135-.892.338-2.676.338-4.804s-.203-3.912-.338-4.804Zm-6.689 5.284-4.054 2.951c-.068.069-.203.069-.27.069-.068 0-.136 0-.203-.069-.135-.068-.27-.274-.27-.411v-5.971c0-.206.135-.343.27-.412.135-.068.338-.068.54.069l4.055 2.95c.135.07.202.275.202.413a1.437 1.437 0 0 1-.27.411Z"/>
  <path fill="#AE9BA5" d="M29.662 15.196c0-.069 0-.137-.067-.206v-.137c-.27-.755-.946-1.304-1.825-1.304h.135S24.527 13 20 13s-7.905.549-7.905.549h.135c-.811 0-1.554.549-1.825 1.304v.137c0 .069-.067.137-.067.206A33.691 33.691 0 0 0 10 20c0 2.128.203 3.912.338 4.804 0 .069 0 .137.067.206v.137c.27.755.946 1.304 1.825 1.304h-.135S15.473 27 20 27s7.905-.549 7.905-.549h-.135c.811 0 1.554-.549 1.825-1.304v-.137c0-.069.067-.137.067-.206.135-.892.338-2.676.338-4.804s-.203-3.912-.338-4.804Zm-6.689 5.284-4.054 2.951c-.068.069-.203.069-.27.069-.068 0-.136 0-.203-.069-.135-.068-.27-.274-.27-.411v-5.971c0-.206.135-.343.27-.412.135-.068.338-.068.54.069l4.055 2.95c.135.07.202.275.202.413a1.437 1.437 0 0 1-.27.411Z"/>
</svg>
