<svg xmlns="http://www.w3.org/2000/svg" width="40" height="40" fill="none">
  <rect width="39" height="39" x=".5" y=".5" stroke="#E4DEE0" rx="19.5"/>
  <path fill="#fff" d="M21.279 17.823v-1.866c0-.678.435-.848.762-.848h1.905V12h-2.613c-2.938 0-3.646 2.318-3.646 3.788v2.035H16v3.166h1.687V28h3.592v-7.011h2.395L24 17.823h-2.721Z"/>
  <path fill="#AE9BA5" d="M21.279 17.823v-1.866c0-.678.435-.848.762-.848h1.905V12h-2.613c-2.938 0-3.646 2.318-3.646 3.788v2.035H16v3.166h1.687V28h3.592v-7.011h2.395L24 17.823h-2.721Z"/>
</svg>
