<svg width="40" height="40" viewBox="0 0 40 40" fill="none" xmlns="http://www.w3.org/2000/svg">
<g id="2">
<rect id="Rectangle 18623" x="0.5" y="0.5" width="39" height="39" rx="19.5" stroke="#E4DEE0"/>
<g id="Vector">
<path d="M21.2789 17.823V15.9574C21.2789 15.279 21.7143 15.1094 22.0408 15.1094C22.3673 15.1094 23.9456 15.1094 23.9456 15.1094V12H21.3333C18.3946 12 17.6871 14.3179 17.6871 15.7878V17.823H16V20.9889H17.6871C17.6871 25.0593 17.6871 28 17.6871 28H21.2789C21.2789 28 21.2789 25.0028 21.2789 20.9889H23.6735L24 17.823H21.2789Z" fill="white"/>
<path d="M21.2789 17.823V15.9574C21.2789 15.279 21.7143 15.1094 22.0408 15.1094C22.3673 15.1094 23.9456 15.1094 23.9456 15.1094V12H21.3333C18.3946 12 17.6871 14.3179 17.6871 15.7878V17.823H16V20.9889H17.6871C17.6871 25.0593 17.6871 28 17.6871 28H21.2789C21.2789 28 21.2789 25.0028 21.2789 20.9889H23.6735L24 17.823H21.2789Z" fill="#AE9BA5"/>
</g>
</g>
</svg>
