<svg xmlns="http://www.w3.org/2000/svg" width="368" height="62" fill="none">
  <g fill="#AE9BA5" fill-rule="evenodd" clip-rule="evenodd" opacity=".4">
    <path d="M367.433 19.054c-.038-2.58-.549-4.939-1.501-7.04-1.392-3.169-3.698-5.712-6.957-7.591C353.958 1.51 345.387 0 333.232 0h-.367c-12.159 0-20.726 1.474-25.743 4.423-3.297 1.916-5.603 4.422-6.957 7.592-.99 2.211-1.501 4.79-1.501 7.776 0 2.985.511 5.418 1.539 7.408 1.867 3.538 4.979 6.191 8.457 7.74 1.758.81 3.993 1.4 6.666 1.879 2.673.442 5.346.774 7.944.958 2.601.184 5.822.295 9.667.442l10.51.59c1.501.148 2.273.295 3.588.774 1.358.48 2.087 1.364 2.197 2.764.185 2.433-1.535 4.054-5.161 4.865-2.344.516-5.97.737-10.839.737h-.367c-5.055 0-8.752-.258-11.096-.737-1.758-.368-3.04-1.032-3.846-1.806-.767-.737-1.134-1.953-1.134-3.722v-.369h-18.091v1.474c.038 2.691.552 5.013 1.505 7.04 1.391 3.206 3.66 5.786 6.956 7.702 4.98 2.912 13.585 4.35 25.744 4.35h.366c11.936-.038 20.47-1.512 25.631-4.534 3.296-1.916 5.603-4.46 6.994-7.592.953-2.248 1.467-4.865 1.467-7.776 0-2.912-.514-5.381-1.577-7.371-1.83-3.723-5.017-6.229-8.495-7.74-1.72-.81-3.955-1.4-6.628-1.88a83.714 83.714 0 0 0-7.947-1.031 158.96 158.96 0 0 0-9.739-.369l-10.326-.626c-1.501-.222-2.162-.332-3.553-.737-1.354-.37-2.122-1.253-2.307-2.544-.329-2.432 1.21-4.017 4.651-4.901 2.306-.553 5.932-.848 10.949-.885h.767c5.055.037 8.753.295 11.097.811 1.83.369 3.149.995 3.954 1.806.772.663 1.135 1.953 1.135 3.833v.258h18.091v-1.548ZM289.728 15.808V1.803h-59.392V60.29h59.392V46.25h-41.891v-8.22h38.488V23.99h-38.488v-8.182h41.891ZM223.408 1.803h-23.252l-13.951 15.921L172.25 1.803h-23.215l25.559 29.225-25.559 29.263h23.215l13.955-15.958 13.951 15.958h23.252l-25.559-29.263 25.559-29.225ZM128.897 23.33c.769 1.843 1.135 4.534 1.135 7.998 0 3.464-.366 6.044-1.135 7.813-1.098 2.838-3.002 5.049-5.822 6.56-2.82 1.511-6.921 2.285-12.341 2.285-9.777 0-15.819-3.022-18.162-9.066-.806-1.769-1.209-4.349-1.209-7.777 0-3.427.403-6.044 1.209-7.813 2.307-6.08 8.385-9.14 18.162-9.14 5.383 0 9.448.774 12.231 2.396 2.82 1.621 4.797 3.833 5.932 6.708v.037Zm16.881 22.113c1.538-3.759 2.307-8.476 2.344-14.152.036-5.675-.769-10.467-2.344-14.3-2.673-6.707-7.653-11.388-14.171-13.71C125.162.96 118.791.15 110.734.296 102.715.15 96.27.96 89.752 3.281c-6.445 2.322-11.425 6.966-14.098 13.71-1.611 3.833-2.38 8.514-2.38 14.152 0 5.64.805 10.32 2.38 14.116 2.673 6.634 7.653 11.351 14.098 13.673 6.518 2.322 12.963 3.17 20.982 3.059 4.065.037 7.727-.148 11.059-.59a46.32 46.32 0 0 0 9.814-2.322c6.555-2.248 11.461-6.818 14.135-13.636h.036ZM42.038 15.81c2.38 0 4.467 1.658 4.467 4.127 0 2.47-2.05 4.017-4.467 4.017h-24.57V15.81h24.57Zm1.977 30.405H17.504v-8.22h26.511c2.527 0 4.541 1.475 4.541 4.129 0 2.432-2.16 4.054-4.54 4.054v.037Zm18.566-33.428a18.043 18.043 0 0 0-3.845-5.712c-1.647-1.696-3.588-2.986-5.785-3.944-2.234-.884-5.237-1.363-9.009-1.363H0v58.488h45.92c3.845 0 6.884-.442 9.118-1.4 2.123-.922 4.028-2.248 5.676-3.87 1.538-1.585 2.82-3.464 3.845-5.786 1.538-3.76 1.72-7.555.402-11.425-1.245-3.87-3.295-6.597-6.078-8.072 1.135-.884 2.123-2.063 3.039-3.648.879-1.585 1.465-3.501 1.758-5.823.293-2.322-.037-4.828-1.099-7.408v-.037Z"/>
  </g>
</svg>
