<svg xmlns="http://www.w3.org/2000/svg" width="3424" height="3424" fill="none">
  <g stroke="#fff" opacity=".2">
    <path d="M1904.33 230.409c126.56 115.102 230.12 230.198 307.83 365.365l-166.34 407.466c-25.95-106.337-63.44-235.355-135.23-335.839l-.4-.553-.41.542c-267.89 354.36-334.13 714.56-236.15 1152.5l-298.71 103.33c-74.85-310.95-74.87-610.36 31.57-918.37l.21-.63-.66-.03c-109.56-5.796-247.93 11.46-357.49 51.8l-.24.09-.07.25c-37.43 135.45-54.697 273.82-43.13 371.89l.06.53.52-.1c63.21-11.47 129.27-20.08 198.18-20.11-8.54 100.48-5.64 195.25 11.55 287.17-218.812 5.78-397.4 57.65-607.595 181.42l-.576.34.488.46c89.107 83.36 212.55 149.53 330.376 192.8l-367.339 149.15c-149.582-103.62-270.455-235.97-371.222-388.45 161.194-143.85 333.893-253.16 518.1-322.2l.345-.13-.022-.37c-14.465-244.8 11.393-426.21 117.845-665.186 221.71-106.462 434.79-152.457 699.73-123.589l.33.035.16-.285c106.45-187.077 224.43-333.887 368.29-489.296Z"/>
    <path d="m1573.31 2520.65.2.19.27-.07 757.78-187.09.29-.07.07-.3 181.33-763.54.06-.27-.19-.2-187.35-187.35-.6-.59-.23.81-215.84 734.45-731.58 218.72-.83.25.63.59 195.99 184.47Zm-552.87-133.55c-91.933-11.52-212.426-28.77-321.588-85.96l1165.838-434.4.21-.08.08-.22c143.83-402.99 247.43-690.94 417.03-1125.314 8.74 23.469 24.3 70.203 38.46 118.332 14.43 48.995 27.39 99.381 30.28 128.143l.01.177.13.127 432.34 432.335c25.83 25.83 37.3 60.24 28.71 97.51v.01c-36.43 163.44-65.9 319.92-95.23 475.66l-5.85 31.11c-31.3 166.03-62.95 331.7-103.24 504.57v.02l-.01.03c-5.72 45.88-37.24 77.4-80.26 85.99l-994.04 198.55v.01c-34.46 5.73-68.86-.03-97.54-28.71h-.01l-415.04-397.76-.12-.11-.16-.02Z"/>
  </g>
</svg>
