<svg xmlns="http://www.w3.org/2000/svg" width="1900" height="321" fill="none">
  <g stroke="#AE9BA5" stroke-width="2" opacity=".23">
    <path d="M1899 98.537v6.996h-91.55v-.335c0-9.74-1.86-16.807-6.18-20.551-4.36-4.373-11.39-7.662-20.93-9.585-12.23-2.69-31.44-4.023-57.58-4.214h-3.98c-25.96.19-44.8 1.715-56.85 4.602v.001l-.01.002c-8.98 2.308-15.62 5.563-19.81 9.95-4.23 4.435-5.87 9.941-4.98 16.499v.008c.5 3.501 1.81 6.504 3.94 8.888 2.14 2.381 5.06 4.088 8.71 5.083 7.25 2.112 10.72 2.692 18.5 3.839l.04.006.04.002 53.4 3.24.02.002h.03c20.23.19 36.88.952 50.29 1.903 13.79 1.14 27.21 2.852 41 5.323 13.79 2.473 25.24 5.503 34.02 9.64l.01.007.02.006c17.83 7.744 34.1 20.561 43.43 39.546l.01.015v.014c5.4 10.106 8.04 22.701 8.04 37.644 0 14.936-2.64 28.33-7.5 39.816-7.11 15.988-18.88 28.981-35.76 38.791v.002c-26.44 15.485-70.34 23.113-132.03 23.304h-1.9c-62.85 0-107.11-7.441-132.61-22.351v-.001c-16.87-9.807-28.45-22.986-35.56-39.365l-.01-.014v-.013c-4.86-10.334-7.49-22.195-7.69-35.983v-6.616h91.55v.907c0 9.243 1.91 15.875 6.17 19.969 4.34 4.166 11.15 7.663 20.37 9.595l.01.001c12.22 2.5 31.43 3.832 57.58 3.832h1.9c25.18 0 44.03-1.14 56.26-3.835l.01-.001c9.45-2.115 16.56-5.314 21.2-9.681 4.67-4.407 6.76-9.947 6.26-16.526v-.002c-.29-3.782-1.44-6.938-3.48-9.481-2.03-2.538-4.9-4.392-8.54-5.677-6.9-2.511-10.97-3.287-18.79-4.056l-.02-.002-.02-.001-54.35-3.049h-.01l-.01-.001-7.01-.267c-16.82-.638-31.13-1.181-42.95-2.017-13.39-.951-27.18-2.662-40.98-4.944-13.78-2.47-25.24-5.503-34.21-9.643l-.02-.005c-17.8-7.924-33.71-21.499-43.25-39.571-5.22-10.11-7.85-22.519-7.85-37.843 0-15.322 2.63-28.519 7.68-39.803v-.008l.01-.008c6.9-16.168 18.67-28.972 35.55-38.787l.01-.003C1614.33 8.632 1658.4 1 1721.25 1h1.9c62.82 0 106.91 7.82 132.61 22.734l.01.002c16.68 9.62 28.45 22.612 35.55 38.794l.01.012c4.86 10.724 7.48 22.782 7.67 35.995ZM1280.56 239.178v1h216.62v70.609h-305.12V10.34h305.12v70.42h-216.62v44.308h199.02v70.61h-199.02v43.5ZM772.881 310.787l130.718-149.662.575-.658-.575-.658-130.716-149.47h117.389l71.861 81.99.752.858.752-.858 71.843-81.99h117.58l-130.71 149.47-.58.658.58.658 130.71 149.662h-117.58l-71.843-82.178-.752-.861-.753.861-71.861 82.178h-117.39ZM673.405 161.987c0-17.841-1.868-31.848-5.869-41.554v-.181l-.07-.177c-5.96-15.093-16.346-26.696-31.105-35.184-14.618-8.517-35.848-12.523-63.746-12.523-50.712 0-82.687 15.877-94.844 47.879-4.246 9.341-6.325 23.033-6.325 40.787 0 17.759 2.08 31.261 6.326 40.6 12.348 31.807 44.13 47.494 94.843 47.494 28.093 0 49.494-4.008 64.286-11.934 14.787-7.925 24.793-19.539 30.56-34.424 4.055-9.339 5.944-22.839 5.944-40.783Zm79.496-73.765.004.01c8.079 19.665 12.231 44.301 12.042 73.558-.185 28.959-4.069 53.009-11.791 72.189h-.198l-.249.635c-13.717 34.983-38.867 58.403-72.485 69.933l-.01.003c-16.595 5.883-33.566 9.869-50.535 11.957l-.01.001c-17.174 2.279-36.06 3.231-57.045 3.04h-.023c-41.382.571-74.586-3.803-108.152-15.76-33.056-11.91-58.595-36.097-72.31-70.136l-.004-.009c-8.078-19.475-12.233-43.54-12.233-72.609 0-29.074 3.967-53.135 12.231-72.794l.004-.01.004-.01c13.715-34.603 39.25-58.41 72.31-70.322C498.013 5.943 531.214 1.76 572.597 2.52h.037c41.573-.76 74.394 3.424 107.575 15.378l.004.001c33.437 11.91 58.971 35.908 72.688 70.323ZM89.324 123.877v1H217.38c12.897 0 24.101-8.309 24.101-21.773 0-13.435-11.361-22.345-24.101-22.345H89.324v43.118Zm138.282 116.11h1v-.209c12.311-.442 23.48-9.015 23.48-21.946 0-7.136-2.718-12.757-7.191-16.579-4.453-3.806-10.57-5.767-17.289-5.767H89.513v44.501h138.093Zm75.405-202.698.008.008c8.754 8.81 15.099 18.55 19.592 29.039v.184l.075.183c5.432 13.194 7.104 25.98 5.612 37.801l.993.125-.993-.125c-1.5 11.906-4.499 21.686-8.967 29.743-4.682 8.106-9.715 14.094-15.461 18.571l-1.218.949 1.365.723c14.098 7.468 24.567 21.322 30.949 41.161l.003.008.003.008c6.734 19.767 5.805 39.143-2.057 58.366-5.253 11.892-11.811 21.505-19.672 29.606-8.437 8.302-18.179 15.086-29.034 19.796-11.369 4.878-26.928 7.161-46.755 7.161H1V10.148h226.229c19.422 0 34.807 2.468 46.197 6.975 11.248 4.908 21.169 11.506 29.585 20.166Z"/>
  </g>
</svg>
